<?xml version="1.0" encoding="utf-8"?>
<!-- Generator: Adobe Illustrator 23.1.0, SVG Export Plug-In . SVG Version: 6.00 Build 0)  -->
<svg version="1.1" id="Layer_2" xmlns="http://www.w3.org/2000/svg" xmlns:xlink="http://www.w3.org/1999/xlink" x="0px" y="0px"
	 viewBox="0 0 27 26" style="enable-background:new 0 0 27 26;" xml:space="preserve">
<style type="text/css">
	.st0{opacity:0.7;}
	.st1{fill:none;stroke:#000000;stroke-linecap:round;stroke-miterlimit:10;}
</style>
<g class="st0">
	<path class="st1" d="M19.1,5.8h2.5c0.8,0,1.5,0.7,1.5,1.5V20c0,0.8-0.7,1.5-1.5,1.5H5.3c-0.8,0-1.5-0.7-1.5-1.5V7.3
		c0-0.8,0.7-1.5,1.5-1.5h2.5"/>
	<line class="st1" x1="4.1" y1="9.4" x2="23.2" y2="9.4"/>
	<line class="st1" x1="9.7" y1="4.1" x2="9.7" y2="7.7"/>
	<line class="st1" x1="17.2" y1="4.1" x2="17.2" y2="7.7"/>
	<line class="st1" x1="17.1" y1="6.1" x2="9.9" y2="6.1"/>
	<line class="st1" x1="7" y1="18.9" x2="19.9" y2="18.9"/>
	<line class="st1" x1="7" y1="15.8" x2="19.9" y2="15.8"/>
	<line class="st1" x1="7" y1="12.7" x2="13.7" y2="12.7"/>
	<circle class="st1" cx="15.3" cy="12.7" r="1.5"/>
	<line class="st1" x1="17.1" y1="12.7" x2="19.9" y2="12.7"/>
</g>
</svg>
